<?xml version="1.0" encoding="UTF-8" standalone="no"?>
<!DOCTYPE svg PUBLIC "-//W3C//DTD SVG 1.1//EN"
 "http://www.w3.org/Graphics/SVG/1.1/DTD/svg11.dtd">
<!-- Generated by graphviz version 2.44.0 (0)
 -->
<!-- Pages: 1 -->
<svg width="1948pt" height="548pt"
 viewBox="0.00 0.00 1947.82 548.00" xmlns="http://www.w3.org/2000/svg" xmlns:xlink="http://www.w3.org/1999/xlink">
<g id="graph0" class="graph" transform="scale(1 1) rotate(0) translate(4 544)">
<polygon fill="white" stroke="transparent" points="-4,4 -4,-544 1943.82,-544 1943.82,4 -4,4"/>
<!-- [root] aws_instance.server (expand) -->
<g id="node1" class="node">
<title>[root] aws_instance.server (expand)</title>
<polygon fill="none" stroke="black" points="726.79,-396 586.79,-396 586.79,-360 726.79,-360 726.79,-396"/>
<text text-anchor="middle" x="656.79" y="-374.3" font-family="Times-Roman" font-size="14.00">aws_instance.server</text>
</g>
<!-- [root] aws_security_group.default (expand) -->
<g id="node5" class="node">
<title>[root] aws_security_group.default (expand)</title>
<polygon fill="none" stroke="black" points="442.29,-324 261.29,-324 261.29,-288 442.29,-288 442.29,-324"/>
<text text-anchor="middle" x="351.79" y="-302.3" font-family="Times-Roman" font-size="14.00">aws_security_group.default</text>
</g>
<!-- [root] aws_instance.server (expand)&#45;&gt;[root] aws_security_group.default (expand) -->
<g id="edge1" class="edge">
<title>[root] aws_instance.server (expand)&#45;&gt;[root] aws_security_group.default (expand)</title>
<path fill="none" stroke="black" d="M586.43,-360.85C541.59,-350.56 483.25,-337.17 435.96,-326.32"/>
<polygon fill="black" stroke="black" points="436.57,-322.87 426.04,-324.04 435.01,-329.69 436.57,-322.87"/>
</g>
<!-- [root] aws_subnet.subnet (expand) -->
<g id="node6" class="node">
<title>[root] aws_subnet.subnet (expand)</title>
<polygon fill="none" stroke="black" points="1207.29,-324 1074.29,-324 1074.29,-288 1207.29,-288 1207.29,-324"/>
<text text-anchor="middle" x="1140.79" y="-302.3" font-family="Times-Roman" font-size="14.00">aws_subnet.subnet</text>
</g>
<!-- [root] aws_instance.server (expand)&#45;&gt;[root] aws_subnet.subnet (expand) -->
<g id="edge2" class="edge">
<title>[root] aws_instance.server (expand)&#45;&gt;[root] aws_subnet.subnet (expand)</title>
<path fill="none" stroke="black" d="M726.94,-366.95C742.99,-364.66 759.98,-362.24 775.79,-360 889.55,-343.88 918.13,-340.85 1031.79,-324 1042.3,-322.44 1053.38,-320.76 1064.29,-319.08"/>
<polygon fill="black" stroke="black" points="1064.89,-322.53 1074.23,-317.54 1063.82,-315.61 1064.89,-322.53"/>
</g>
<!-- [root] var.instance_AMI -->
<g id="node14" class="node">
<title>[root] var.instance_AMI</title>
<polygon fill="none" stroke="black" points="575.29,-324 460.29,-324 460.29,-288 581.29,-288 581.29,-318 575.29,-324"/>
<polyline fill="none" stroke="black" points="575.29,-324 575.29,-318 "/>
<polyline fill="none" stroke="black" points="581.29,-318 575.29,-318 "/>
<text text-anchor="middle" x="520.79" y="-302.3" font-family="Times-Roman" font-size="14.00">var.instance_AMI</text>
</g>
<!-- [root] aws_instance.server (expand)&#45;&gt;[root] var.instance_AMI -->
<g id="edge3" class="edge">
<title>[root] aws_instance.server (expand)&#45;&gt;[root] var.instance_AMI</title>
<path fill="none" stroke="black" d="M623.52,-359.88C605.32,-350.51 582.6,-338.81 563.15,-328.8"/>
<polygon fill="black" stroke="black" points="564.68,-325.65 554.18,-324.19 561.47,-331.88 564.68,-325.65"/>
</g>
<!-- [root] var.instance_tag -->
<g id="node15" class="node">
<title>[root] var.instance_tag</title>
<polygon fill="none" stroke="black" points="708.29,-324 599.29,-324 599.29,-288 714.29,-288 714.29,-318 708.29,-324"/>
<polyline fill="none" stroke="black" points="708.29,-324 708.29,-318 "/>
<polyline fill="none" stroke="black" points="714.29,-318 708.29,-318 "/>
<text text-anchor="middle" x="656.79" y="-302.3" font-family="Times-Roman" font-size="14.00">var.instance_tag</text>
</g>
<!-- [root] aws_instance.server (expand)&#45;&gt;[root] var.instance_tag -->
<g id="edge4" class="edge">
<title>[root] aws_instance.server (expand)&#45;&gt;[root] var.instance_tag</title>
<path fill="none" stroke="black" d="M656.79,-359.7C656.79,-351.98 656.79,-342.71 656.79,-334.11"/>
<polygon fill="black" stroke="black" points="660.29,-334.1 656.79,-324.1 653.29,-334.1 660.29,-334.1"/>
</g>
<!-- [root] var.instance_type -->
<g id="node16" class="node">
<title>[root] var.instance_type</title>
<polygon fill="none" stroke="black" points="848.79,-324 732.79,-324 732.79,-288 854.79,-288 854.79,-318 848.79,-324"/>
<polyline fill="none" stroke="black" points="848.79,-324 848.79,-318 "/>
<polyline fill="none" stroke="black" points="854.79,-318 848.79,-318 "/>
<text text-anchor="middle" x="793.79" y="-302.3" font-family="Times-Roman" font-size="14.00">var.instance_type</text>
</g>
<!-- [root] aws_instance.server (expand)&#45;&gt;[root] var.instance_type -->
<g id="edge5" class="edge">
<title>[root] aws_instance.server (expand)&#45;&gt;[root] var.instance_type</title>
<path fill="none" stroke="black" d="M690.3,-359.88C708.63,-350.51 731.52,-338.81 751.12,-328.8"/>
<polygon fill="black" stroke="black" points="752.83,-331.86 760.14,-324.19 749.65,-325.62 752.83,-331.86"/>
</g>
<!-- [root] aws_internet_gateway.gateway (expand) -->
<g id="node2" class="node">
<title>[root] aws_internet_gateway.gateway (expand)</title>
<polygon fill="none" stroke="black" points="1015.79,-252 811.79,-252 811.79,-216 1015.79,-216 1015.79,-252"/>
<text text-anchor="middle" x="913.79" y="-230.3" font-family="Times-Roman" font-size="14.00">aws_internet_gateway.gateway</text>
</g>
<!-- [root] aws_vpc.main (expand) -->
<g id="node7" class="node">
<title>[root] aws_vpc.main (expand)</title>
<polygon fill="none" stroke="black" points="965.29,-180 862.29,-180 862.29,-144 965.29,-144 965.29,-180"/>
<text text-anchor="middle" x="913.79" y="-158.3" font-family="Times-Roman" font-size="14.00">aws_vpc.main</text>
</g>
<!-- [root] aws_internet_gateway.gateway (expand)&#45;&gt;[root] aws_vpc.main (expand) -->
<g id="edge6" class="edge">
<title>[root] aws_internet_gateway.gateway (expand)&#45;&gt;[root] aws_vpc.main (expand)</title>
<path fill="none" stroke="black" d="M913.79,-215.7C913.79,-207.98 913.79,-198.71 913.79,-190.11"/>
<polygon fill="black" stroke="black" points="917.29,-190.1 913.79,-180.1 910.29,-190.1 917.29,-190.1"/>
</g>
<!-- [root] aws_route_table.table (expand) -->
<g id="node3" class="node">
<title>[root] aws_route_table.table (expand)</title>
<polygon fill="none" stroke="black" points="1022.29,-324 873.29,-324 873.29,-288 1022.29,-288 1022.29,-324"/>
<text text-anchor="middle" x="947.79" y="-302.3" font-family="Times-Roman" font-size="14.00">aws_route_table.table</text>
</g>
<!-- [root] aws_route_table.table (expand)&#45;&gt;[root] aws_internet_gateway.gateway (expand) -->
<g id="edge7" class="edge">
<title>[root] aws_route_table.table (expand)&#45;&gt;[root] aws_internet_gateway.gateway (expand)</title>
<path fill="none" stroke="black" d="M939.38,-287.7C935.51,-279.73 930.83,-270.1 926.54,-261.26"/>
<polygon fill="black" stroke="black" points="929.61,-259.57 922.09,-252.1 923.32,-262.63 929.61,-259.57"/>
</g>
<!-- [root] aws_route_table_association.association (expand) -->
<g id="node4" class="node">
<title>[root] aws_route_table_association.association (expand)</title>
<polygon fill="none" stroke="black" points="1046.79,-396 784.79,-396 784.79,-360 1046.79,-360 1046.79,-396"/>
<text text-anchor="middle" x="915.79" y="-374.3" font-family="Times-Roman" font-size="14.00">aws_route_table_association.association</text>
</g>
<!-- [root] aws_route_table_association.association (expand)&#45;&gt;[root] aws_route_table.table (expand) -->
<g id="edge8" class="edge">
<title>[root] aws_route_table_association.association (expand)&#45;&gt;[root] aws_route_table.table (expand)</title>
<path fill="none" stroke="black" d="M923.7,-359.7C927.34,-351.73 931.74,-342.1 935.78,-333.26"/>
<polygon fill="black" stroke="black" points="938.99,-334.65 939.97,-324.1 932.63,-331.74 938.99,-334.65"/>
</g>
<!-- [root] aws_route_table_association.association (expand)&#45;&gt;[root] aws_subnet.subnet (expand) -->
<g id="edge9" class="edge">
<title>[root] aws_route_table_association.association (expand)&#45;&gt;[root] aws_subnet.subnet (expand)</title>
<path fill="none" stroke="black" d="M970.54,-359.97C1002.39,-350.06 1042.71,-337.51 1076.11,-327.12"/>
<polygon fill="black" stroke="black" points="1077.28,-330.42 1085.79,-324.11 1075.2,-323.74 1077.28,-330.42"/>
</g>
<!-- [root] aws_security_group.default (expand)&#45;&gt;[root] aws_vpc.main (expand) -->
<g id="edge10" class="edge">
<title>[root] aws_security_group.default (expand)&#45;&gt;[root] aws_vpc.main (expand)</title>
<path fill="none" stroke="black" d="M350,-287.67C348.95,-267.27 350.75,-233.89 370.79,-216 406.08,-184.49 717.02,-169.88 851.86,-164.99"/>
<polygon fill="black" stroke="black" points="852.16,-168.48 862.03,-164.62 851.91,-161.48 852.16,-168.48"/>
</g>
<!-- [root] var.allowed_ports -->
<g id="node10" class="node">
<title>[root] var.allowed_ports</title>
<polygon fill="none" stroke="black" points="495.79,-252 379.79,-252 379.79,-216 501.79,-216 501.79,-246 495.79,-252"/>
<polyline fill="none" stroke="black" points="495.79,-252 495.79,-246 "/>
<polyline fill="none" stroke="black" points="501.79,-246 495.79,-246 "/>
<text text-anchor="middle" x="440.79" y="-230.3" font-family="Times-Roman" font-size="14.00">var.allowed_ports</text>
</g>
<!-- [root] aws_security_group.default (expand)&#45;&gt;[root] var.allowed_ports -->
<g id="edge11" class="edge">
<title>[root] aws_security_group.default (expand)&#45;&gt;[root] var.allowed_ports</title>
<path fill="none" stroke="black" d="M373.79,-287.7C385,-278.88 398.79,-268.03 410.94,-258.47"/>
<polygon fill="black" stroke="black" points="413.34,-261.04 419.04,-252.1 409.02,-255.54 413.34,-261.04"/>
</g>
<!-- [root] aws_subnet.subnet (expand)&#45;&gt;[root] aws_vpc.main (expand) -->
<g id="edge12" class="edge">
<title>[root] aws_subnet.subnet (expand)&#45;&gt;[root] aws_vpc.main (expand)</title>
<path fill="none" stroke="black" d="M1114.1,-287.99C1098.96,-278.01 1079.89,-264.87 1063.79,-252 1045.36,-237.28 1044.32,-229.23 1024.79,-216 1006.71,-203.75 985.36,-192.83 966.24,-184.13"/>
<polygon fill="black" stroke="black" points="967.61,-180.91 957.05,-180.04 964.77,-187.31 967.61,-180.91"/>
</g>
<!-- [root] var.availability_zone -->
<g id="node11" class="node">
<title>[root] var.availability_zone</title>
<polygon fill="none" stroke="black" points="1203.29,-252 1072.29,-252 1072.29,-216 1209.29,-216 1209.29,-246 1203.29,-252"/>
<polyline fill="none" stroke="black" points="1203.29,-252 1203.29,-246 "/>
<polyline fill="none" stroke="black" points="1209.29,-246 1203.29,-246 "/>
<text text-anchor="middle" x="1140.79" y="-230.3" font-family="Times-Roman" font-size="14.00">var.availability_zone</text>
</g>
<!-- [root] aws_subnet.subnet (expand)&#45;&gt;[root] var.availability_zone -->
<g id="edge13" class="edge">
<title>[root] aws_subnet.subnet (expand)&#45;&gt;[root] var.availability_zone</title>
<path fill="none" stroke="black" d="M1140.79,-287.7C1140.79,-279.98 1140.79,-270.71 1140.79,-262.11"/>
<polygon fill="black" stroke="black" points="1144.29,-262.1 1140.79,-252.1 1137.29,-262.1 1144.29,-262.1"/>
</g>
<!-- [root] var.publicCIDR -->
<g id="node17" class="node">
<title>[root] var.publicCIDR</title>
<polygon fill="none" stroke="black" points="1328.29,-252 1227.29,-252 1227.29,-216 1334.29,-216 1334.29,-246 1328.29,-252"/>
<polyline fill="none" stroke="black" points="1328.29,-252 1328.29,-246 "/>
<polyline fill="none" stroke="black" points="1334.29,-246 1328.29,-246 "/>
<text text-anchor="middle" x="1280.79" y="-230.3" font-family="Times-Roman" font-size="14.00">var.publicCIDR</text>
</g>
<!-- [root] aws_subnet.subnet (expand)&#45;&gt;[root] var.publicCIDR -->
<g id="edge14" class="edge">
<title>[root] aws_subnet.subnet (expand)&#45;&gt;[root] var.publicCIDR</title>
<path fill="none" stroke="black" d="M1175.03,-287.88C1193.85,-278.47 1217.37,-266.71 1237.45,-256.67"/>
<polygon fill="black" stroke="black" points="1239.03,-259.79 1246.41,-252.19 1235.9,-253.53 1239.03,-259.79"/>
</g>
<!-- [root] provider[&quot;registry.terraform.io/hashicorp/aws&quot;] -->
<g id="node9" class="node">
<title>[root] provider[&quot;registry.terraform.io/hashicorp/aws&quot;]</title>
<polygon fill="none" stroke="black" points="1554.79,-108 1286.5,-90 1554.79,-72 1823.07,-90 1554.79,-108"/>
<text text-anchor="middle" x="1554.79" y="-86.3" font-family="Times-Roman" font-size="14.00">provider[&quot;registry.terraform.io/hashicorp/aws&quot;]</text>
</g>
<!-- [root] aws_vpc.main (expand)&#45;&gt;[root] provider[&quot;registry.terraform.io/hashicorp/aws&quot;] -->
<g id="edge15" class="edge">
<title>[root] aws_vpc.main (expand)&#45;&gt;[root] provider[&quot;registry.terraform.io/hashicorp/aws&quot;]</title>
<path fill="none" stroke="black" d="M965.43,-155.36C1069.94,-143.95 1308.38,-117.91 1447.84,-102.68"/>
<polygon fill="black" stroke="black" points="1448.56,-106.12 1458.12,-101.56 1447.8,-99.16 1448.56,-106.12"/>
</g>
<!-- [root] var.cidr -->
<g id="node12" class="node">
<title>[root] var.cidr</title>
<polygon fill="none" stroke="black" points="990.79,-108 936.79,-108 936.79,-72 996.79,-72 996.79,-102 990.79,-108"/>
<polyline fill="none" stroke="black" points="990.79,-108 990.79,-102 "/>
<polyline fill="none" stroke="black" points="996.79,-102 990.79,-102 "/>
<text text-anchor="middle" x="966.79" y="-86.3" font-family="Times-Roman" font-size="14.00">var.cidr</text>
</g>
<!-- [root] aws_vpc.main (expand)&#45;&gt;[root] var.cidr -->
<g id="edge16" class="edge">
<title>[root] aws_vpc.main (expand)&#45;&gt;[root] var.cidr</title>
<path fill="none" stroke="black" d="M926.89,-143.7C933.18,-135.39 940.83,-125.28 947.75,-116.14"/>
<polygon fill="black" stroke="black" points="950.59,-118.19 953.84,-108.1 945.01,-113.96 950.59,-118.19"/>
</g>
<!-- [root] var.environment -->
<g id="node13" class="node">
<title>[root] var.environment</title>
<polygon fill="none" stroke="black" points="912.29,-108 805.29,-108 805.29,-72 918.29,-72 918.29,-102 912.29,-108"/>
<polyline fill="none" stroke="black" points="912.29,-108 912.29,-102 "/>
<polyline fill="none" stroke="black" points="918.29,-102 912.29,-102 "/>
<text text-anchor="middle" x="861.79" y="-86.3" font-family="Times-Roman" font-size="14.00">var.environment</text>
</g>
<!-- [root] aws_vpc.main (expand)&#45;&gt;[root] var.environment -->
<g id="edge17" class="edge">
<title>[root] aws_vpc.main (expand)&#45;&gt;[root] var.environment</title>
<path fill="none" stroke="black" d="M900.93,-143.7C894.76,-135.39 887.25,-125.28 880.46,-116.14"/>
<polygon fill="black" stroke="black" points="883.27,-114.04 874.49,-108.1 877.65,-118.22 883.27,-114.04"/>
</g>
<!-- [root] data.aws_region.current (expand) -->
<g id="node8" class="node">
<title>[root] data.aws_region.current (expand)</title>
<polygon fill="none" stroke="black" points="1907.29,-396 1746.29,-396 1746.29,-360 1907.29,-360 1907.29,-396"/>
<text text-anchor="middle" x="1826.79" y="-374.3" font-family="Times-Roman" font-size="14.00">data.aws_region.current</text>
</g>
<!-- [root] data.aws_region.current (expand)&#45;&gt;[root] provider[&quot;registry.terraform.io/hashicorp/aws&quot;] -->
<g id="edge18" class="edge">
<title>[root] data.aws_region.current (expand)&#45;&gt;[root] provider[&quot;registry.terraform.io/hashicorp/aws&quot;]</title>
<path fill="none" stroke="black" d="M1810.59,-359.97C1764.16,-311.15 1630.57,-170.69 1577.2,-114.57"/>
<polygon fill="black" stroke="black" points="1579.65,-112.07 1570.22,-107.23 1574.58,-116.89 1579.65,-112.07"/>
</g>
<!-- [root] var.region -->
<g id="node18" class="node">
<title>[root] var.region</title>
<polygon fill="none" stroke="black" points="1586.79,-36 1516.79,-36 1516.79,0 1592.79,0 1592.79,-30 1586.79,-36"/>
<polyline fill="none" stroke="black" points="1586.79,-36 1586.79,-30 "/>
<polyline fill="none" stroke="black" points="1592.79,-30 1586.79,-30 "/>
<text text-anchor="middle" x="1554.79" y="-14.3" font-family="Times-Roman" font-size="14.00">var.region</text>
</g>
<!-- [root] provider[&quot;registry.terraform.io/hashicorp/aws&quot;]&#45;&gt;[root] var.region -->
<g id="edge29" class="edge">
<title>[root] provider[&quot;registry.terraform.io/hashicorp/aws&quot;]&#45;&gt;[root] var.region</title>
<path fill="none" stroke="black" d="M1554.79,-71.7C1554.79,-63.98 1554.79,-54.71 1554.79,-46.11"/>
<polygon fill="black" stroke="black" points="1558.29,-46.1 1554.79,-36.1 1551.29,-46.1 1558.29,-46.1"/>
</g>
<!-- [root] output.ec2_ami (expand) -->
<g id="node19" class="node">
<title>[root] output.ec2_ami (expand)</title>
<ellipse fill="none" stroke="black" cx="583.79" cy="-450" rx="131.08" ry="18"/>
<text text-anchor="middle" x="583.79" y="-446.3" font-family="Times-Roman" font-size="14.00">[root] output.ec2_ami (expand)</text>
</g>
<!-- [root] output.ec2_ami (expand)&#45;&gt;[root] aws_instance.server (expand) -->
<g id="edge19" class="edge">
<title>[root] output.ec2_ami (expand)&#45;&gt;[root] aws_instance.server (expand)</title>
<path fill="none" stroke="black" d="M601.46,-432.05C610.54,-423.35 621.76,-412.59 631.71,-403.04"/>
<polygon fill="black" stroke="black" points="634.23,-405.48 639.03,-396.03 629.38,-400.43 634.23,-405.48"/>
</g>
<!-- [root] output.ec2_public_ip (expand) -->
<g id="node20" class="node">
<title>[root] output.ec2_public_ip (expand)</title>
<ellipse fill="none" stroke="black" cx="884.79" cy="-450" rx="151.37" ry="18"/>
<text text-anchor="middle" x="884.79" y="-446.3" font-family="Times-Roman" font-size="14.00">[root] output.ec2_public_ip (expand)</text>
</g>
<!-- [root] output.ec2_public_ip (expand)&#45;&gt;[root] aws_instance.server (expand) -->
<g id="edge20" class="edge">
<title>[root] output.ec2_public_ip (expand)&#45;&gt;[root] aws_instance.server (expand)</title>
<path fill="none" stroke="black" d="M832.76,-433.03C799.85,-422.92 757.03,-409.78 721.87,-398.98"/>
<polygon fill="black" stroke="black" points="722.75,-395.59 712.17,-396 720.7,-402.28 722.75,-395.59"/>
</g>
<!-- [root] output.ec2_region (expand) -->
<g id="node21" class="node">
<title>[root] output.ec2_region (expand)</title>
<ellipse fill="none" stroke="black" cx="1798.79" cy="-450" rx="141.07" ry="18"/>
<text text-anchor="middle" x="1798.79" y="-446.3" font-family="Times-Roman" font-size="14.00">[root] output.ec2_region (expand)</text>
</g>
<!-- [root] output.ec2_region (expand)&#45;&gt;[root] data.aws_region.current (expand) -->
<g id="edge21" class="edge">
<title>[root] output.ec2_region (expand)&#45;&gt;[root] data.aws_region.current (expand)</title>
<path fill="none" stroke="black" d="M1805.71,-431.7C1808.86,-423.81 1812.66,-414.3 1816.17,-405.55"/>
<polygon fill="black" stroke="black" points="1819.48,-406.69 1819.94,-396.1 1812.98,-404.09 1819.48,-406.69"/>
</g>
<!-- [root] output.ec2_subnet_id (expand) -->
<g id="node22" class="node">
<title>[root] output.ec2_subnet_id (expand)</title>
<ellipse fill="none" stroke="black" cx="1573.79" cy="-378" rx="154.87" ry="18"/>
<text text-anchor="middle" x="1573.79" y="-374.3" font-family="Times-Roman" font-size="14.00">[root] output.ec2_subnet_id (expand)</text>
</g>
<!-- [root] output.ec2_subnet_id (expand)&#45;&gt;[root] aws_subnet.subnet (expand) -->
<g id="edge22" class="edge">
<title>[root] output.ec2_subnet_id (expand)&#45;&gt;[root] aws_subnet.subnet (expand)</title>
<path fill="none" stroke="black" d="M1487.46,-363.04C1408.6,-350.3 1293.08,-331.62 1217.42,-319.39"/>
<polygon fill="black" stroke="black" points="1217.91,-315.92 1207.48,-317.78 1216.79,-322.83 1217.91,-315.92"/>
</g>
<!-- [root] output.ec2_type (expand) -->
<g id="node23" class="node">
<title>[root] output.ec2_type (expand)</title>
<ellipse fill="none" stroke="black" cx="300.79" cy="-450" rx="133.48" ry="18"/>
<text text-anchor="middle" x="300.79" y="-446.3" font-family="Times-Roman" font-size="14.00">[root] output.ec2_type (expand)</text>
</g>
<!-- [root] output.ec2_type (expand)&#45;&gt;[root] aws_instance.server (expand) -->
<g id="edge23" class="edge">
<title>[root] output.ec2_type (expand)&#45;&gt;[root] aws_instance.server (expand)</title>
<path fill="none" stroke="black" d="M372.83,-434.83C431.91,-423.22 515.49,-406.78 576.67,-394.75"/>
<polygon fill="black" stroke="black" points="577.53,-398.15 586.67,-392.79 576.18,-391.28 577.53,-398.15"/>
</g>
<!-- [root] output.public_subnet_AZ (expand) -->
<g id="node24" class="node">
<title>[root] output.public_subnet_AZ (expand)</title>
<ellipse fill="none" stroke="black" cx="1232.79" cy="-378" rx="168.17" ry="18"/>
<text text-anchor="middle" x="1232.79" y="-374.3" font-family="Times-Roman" font-size="14.00">[root] output.public_subnet_AZ (expand)</text>
</g>
<!-- [root] output.public_subnet_AZ (expand)&#45;&gt;[root] aws_subnet.subnet (expand) -->
<g id="edge24" class="edge">
<title>[root] output.public_subnet_AZ (expand)&#45;&gt;[root] aws_subnet.subnet (expand)</title>
<path fill="none" stroke="black" d="M1210.52,-360.05C1198.74,-351.09 1184.1,-339.96 1171.28,-330.2"/>
<polygon fill="black" stroke="black" points="1173.25,-327.3 1163.17,-324.03 1169.01,-332.87 1173.25,-327.3"/>
</g>
<!-- [root] output.public_vpc_id (expand) -->
<g id="node25" class="node">
<title>[root] output.public_vpc_id (expand)</title>
<ellipse fill="none" stroke="black" cx="150.79" cy="-234" rx="150.57" ry="18"/>
<text text-anchor="middle" x="150.79" y="-230.3" font-family="Times-Roman" font-size="14.00">[root] output.public_vpc_id (expand)</text>
</g>
<!-- [root] output.public_vpc_id (expand)&#45;&gt;[root] aws_vpc.main (expand) -->
<g id="edge25" class="edge">
<title>[root] output.public_vpc_id (expand)&#45;&gt;[root] aws_vpc.main (expand)</title>
<path fill="none" stroke="black" d="M266.26,-222.41C430.12,-207.37 724.39,-180.38 851.98,-168.67"/>
<polygon fill="black" stroke="black" points="852.33,-172.15 861.97,-167.75 851.69,-165.18 852.33,-172.15"/>
</g>
<!-- [root] provider[&quot;registry.terraform.io/hashicorp/aws&quot;] (close) -->
<g id="node26" class="node">
<title>[root] provider[&quot;registry.terraform.io/hashicorp/aws&quot;] (close)</title>
<ellipse fill="none" stroke="black" cx="1295.79" cy="-450" rx="241.26" ry="18"/>
<text text-anchor="middle" x="1295.79" y="-446.3" font-family="Times-Roman" font-size="14.00">[root] provider[&quot;registry.terraform.io/hashicorp/aws&quot;] (close)</text>
</g>
<!-- [root] provider[&quot;registry.terraform.io/hashicorp/aws&quot;] (close)&#45;&gt;[root] aws_instance.server (expand) -->
<g id="edge26" class="edge">
<title>[root] provider[&quot;registry.terraform.io/hashicorp/aws&quot;] (close)&#45;&gt;[root] aws_instance.server (expand)</title>
<path fill="none" stroke="black" d="M1149.36,-435.67C1045.07,-425.78 901.66,-411.4 775.79,-396 763.28,-394.47 750.06,-392.72 737.15,-390.93"/>
<polygon fill="black" stroke="black" points="737.27,-387.41 726.88,-389.49 736.3,-394.35 737.27,-387.41"/>
</g>
<!-- [root] provider[&quot;registry.terraform.io/hashicorp/aws&quot;] (close)&#45;&gt;[root] aws_route_table_association.association (expand) -->
<g id="edge27" class="edge">
<title>[root] provider[&quot;registry.terraform.io/hashicorp/aws&quot;] (close)&#45;&gt;[root] aws_route_table_association.association (expand)</title>
<path fill="none" stroke="black" d="M1209.56,-433.12C1152.72,-422.65 1078.02,-408.88 1018.16,-397.86"/>
<polygon fill="black" stroke="black" points="1018.78,-394.41 1008.31,-396.04 1017.51,-401.3 1018.78,-394.41"/>
</g>
<!-- [root] provider[&quot;registry.terraform.io/hashicorp/aws&quot;] (close)&#45;&gt;[root] data.aws_region.current (expand) -->
<g id="edge28" class="edge">
<title>[root] provider[&quot;registry.terraform.io/hashicorp/aws&quot;] (close)&#45;&gt;[root] data.aws_region.current (expand)</title>
<path fill="none" stroke="black" d="M1432.02,-435.13C1516.93,-425.9 1628.64,-412.69 1735.8,-396.26"/>
<polygon fill="black" stroke="black" points="1736.47,-399.7 1745.82,-394.71 1735.4,-392.78 1736.47,-399.7"/>
</g>
<!-- [root] root -->
<g id="node27" class="node">
<title>[root] root</title>
<ellipse fill="none" stroke="black" cx="1089.79" cy="-522" rx="48.19" ry="18"/>
<text text-anchor="middle" x="1089.79" y="-518.3" font-family="Times-Roman" font-size="14.00">[root] root</text>
</g>
<!-- [root] root&#45;&gt;[root] output.ec2_ami (expand) -->
<g id="edge30" class="edge">
<title>[root] root&#45;&gt;[root] output.ec2_ami (expand)</title>
<path fill="none" stroke="black" d="M1045.33,-514.85C964.64,-503.69 792.34,-479.85 682.6,-464.67"/>
<polygon fill="black" stroke="black" points="682.89,-461.18 672.51,-463.27 681.93,-468.11 682.89,-461.18"/>
</g>
<!-- [root] root&#45;&gt;[root] output.ec2_public_ip (expand) -->
<g id="edge31" class="edge">
<title>[root] root&#45;&gt;[root] output.ec2_public_ip (expand)</title>
<path fill="none" stroke="black" d="M1055.47,-509.28C1024.5,-498.71 978.33,-482.94 941.82,-470.47"/>
<polygon fill="black" stroke="black" points="942.87,-467.14 932.28,-467.22 940.61,-473.76 942.87,-467.14"/>
</g>
<!-- [root] root&#45;&gt;[root] output.ec2_region (expand) -->
<g id="edge32" class="edge">
<title>[root] root&#45;&gt;[root] output.ec2_region (expand)</title>
<path fill="none" stroke="black" d="M1135.76,-516.46C1244.68,-505.71 1521.25,-478.4 1680.66,-462.66"/>
<polygon fill="black" stroke="black" points="1681.38,-466.11 1690.99,-461.64 1680.69,-459.14 1681.38,-466.11"/>
</g>
<!-- [root] root&#45;&gt;[root] output.ec2_subnet_id (expand) -->
<g id="edge33" class="edge">
<title>[root] root&#45;&gt;[root] output.ec2_subnet_id (expand)</title>
<path fill="none" stroke="black" d="M1137.53,-518.96C1251.64,-513.61 1532.89,-497.56 1562.79,-468 1578.74,-452.23 1580.22,-426.01 1578.46,-406.11"/>
<polygon fill="black" stroke="black" points="1581.93,-405.6 1577.27,-396.08 1574.98,-406.43 1581.93,-405.6"/>
</g>
<!-- [root] root&#45;&gt;[root] output.ec2_type (expand) -->
<g id="edge34" class="edge">
<title>[root] root&#45;&gt;[root] output.ec2_type (expand)</title>
<path fill="none" stroke="black" d="M1042.72,-517.73C936.04,-510.19 667.72,-490.49 443.79,-468 431.42,-466.76 418.46,-465.36 405.61,-463.91"/>
<polygon fill="black" stroke="black" points="405.68,-460.39 395.35,-462.73 404.88,-467.35 405.68,-460.39"/>
</g>
<!-- [root] root&#45;&gt;[root] output.public_subnet_AZ (expand) -->
<g id="edge35" class="edge">
<title>[root] root&#45;&gt;[root] output.public_subnet_AZ (expand)</title>
<path fill="none" stroke="black" d="M1137.28,-518.99C1248.58,-513.8 1518.92,-498.17 1545.79,-468 1556.43,-456.05 1556.11,-444.22 1545.79,-432 1533.25,-417.16 1439.61,-402.6 1357.99,-392.5"/>
<polygon fill="black" stroke="black" points="1357.94,-388.97 1347.59,-391.23 1357.09,-395.92 1357.94,-388.97"/>
</g>
<!-- [root] root&#45;&gt;[root] output.public_vpc_id (expand) -->
<g id="edge36" class="edge">
<title>[root] root&#45;&gt;[root] output.public_vpc_id (expand)</title>
<path fill="none" stroke="black" d="M1041.9,-520.05C855.86,-516.11 189.93,-499.85 158.79,-468 104.75,-412.73 126.89,-310.24 141.62,-261.75"/>
<polygon fill="black" stroke="black" points="145.03,-262.58 144.71,-251.99 138.35,-260.47 145.03,-262.58"/>
</g>
<!-- [root] root&#45;&gt;[root] provider[&quot;registry.terraform.io/hashicorp/aws&quot;] (close) -->
<g id="edge37" class="edge">
<title>[root] root&#45;&gt;[root] provider[&quot;registry.terraform.io/hashicorp/aws&quot;] (close)</title>
<path fill="none" stroke="black" d="M1124.27,-509.28C1154.97,-498.85 1200.53,-483.37 1236.99,-470.98"/>
<polygon fill="black" stroke="black" points="1238.18,-474.27 1246.52,-467.74 1235.93,-467.64 1238.18,-474.27"/>
</g>
</g>
</svg>
